<mxfile host="app.diagrams.net" agent="Mozilla/5.0 (X11; Linux x86_64) AppleWebKit/537.36 (KHTML, like Gecko) Chrome/134.0.0.0 Safari/537.36" version="26.2.4">
  <diagram name="Page-1" id="L-6xuGyGi195UsvOnEmP">
    <mxGraphModel dx="788" dy="433" grid="1" gridSize="10" guides="1" tooltips="1" connect="1" arrows="1" fold="1" page="1" pageScale="1" pageWidth="850" pageHeight="1100" math="0" shadow="0">
      <root>
        <mxCell id="0" />
        <mxCell id="1" parent="0" />
        <mxCell id="wKspAYFqNovjart-IcCN-28" value="" style="rounded=0;whiteSpace=wrap;html=1;" vertex="1" parent="1">
          <mxGeometry x="20" y="30" width="790" height="620" as="geometry" />
        </mxCell>
        <mxCell id="wKspAYFqNovjart-IcCN-23" style="edgeStyle=orthogonalEdgeStyle;rounded=0;orthogonalLoop=1;jettySize=auto;html=1;exitX=0;exitY=0.5;exitDx=0;exitDy=0;exitPerimeter=0;" edge="1" parent="1" source="wKspAYFqNovjart-IcCN-7">
          <mxGeometry relative="1" as="geometry">
            <mxPoint x="570" y="235" as="targetPoint" />
          </mxGeometry>
        </mxCell>
        <mxCell id="wKspAYFqNovjart-IcCN-7" value="" style="shape=note;whiteSpace=wrap;html=1;backgroundOutline=1;darkOpacity=0.05;" vertex="1" parent="1">
          <mxGeometry x="650" y="180" width="95" height="110" as="geometry" />
        </mxCell>
        <mxCell id="wKspAYFqNovjart-IcCN-5" value="Connector.go" style="text;html=1;align=center;verticalAlign=middle;whiteSpace=wrap;rounded=0;" vertex="1" parent="1">
          <mxGeometry x="655" y="225" width="90" height="30" as="geometry" />
        </mxCell>
        <mxCell id="wKspAYFqNovjart-IcCN-11" style="edgeStyle=orthogonalEdgeStyle;rounded=0;orthogonalLoop=1;jettySize=auto;html=1;exitX=0.25;exitY=0;exitDx=0;exitDy=0;entryX=1;entryY=0.5;entryDx=0;entryDy=0;" edge="1" parent="1" source="wKspAYFqNovjart-IcCN-1" target="wKspAYFqNovjart-IcCN-9">
          <mxGeometry relative="1" as="geometry" />
        </mxCell>
        <mxCell id="wKspAYFqNovjart-IcCN-1" value="" style="rounded=0;whiteSpace=wrap;html=1;direction=south;" vertex="1" parent="1">
          <mxGeometry x="55" y="320" width="210" height="150" as="geometry" />
        </mxCell>
        <mxCell id="wKspAYFqNovjart-IcCN-2" value="Synapse Server" style="text;html=1;align=center;verticalAlign=middle;whiteSpace=wrap;rounded=0;" vertex="1" parent="1">
          <mxGeometry x="130" y="290" width="60" height="30" as="geometry" />
        </mxCell>
        <mxCell id="wKspAYFqNovjart-IcCN-8" value="" style="rounded=0;whiteSpace=wrap;html=1;" vertex="1" parent="1">
          <mxGeometry x="355" y="420" width="170" height="140" as="geometry" />
        </mxCell>
        <mxCell id="wKspAYFqNovjart-IcCN-9" value="Implements" style="swimlane;horizontal=0;whiteSpace=wrap;html=1;rotation=-180;" vertex="1" parent="1">
          <mxGeometry x="440" y="140" width="130" height="200" as="geometry" />
        </mxCell>
        <mxCell id="wKspAYFqNovjart-IcCN-10" value="Interface" style="text;html=1;align=center;verticalAlign=middle;whiteSpace=wrap;rounded=0;" vertex="1" parent="wKspAYFqNovjart-IcCN-9">
          <mxGeometry x="20" y="50" width="60" height="30" as="geometry" />
        </mxCell>
        <mxCell id="wKspAYFqNovjart-IcCN-19" style="edgeStyle=orthogonalEdgeStyle;rounded=0;orthogonalLoop=1;jettySize=auto;html=1;entryX=0;entryY=0.5;entryDx=0;entryDy=0;exitX=1;exitY=0.5;exitDx=0;exitDy=0;" edge="1" parent="1" source="wKspAYFqNovjart-IcCN-16" target="wKspAYFqNovjart-IcCN-18">
          <mxGeometry relative="1" as="geometry">
            <Array as="points">
              <mxPoint x="230" y="493" />
            </Array>
          </mxGeometry>
        </mxCell>
        <mxCell id="wKspAYFqNovjart-IcCN-16" value="plugin package" style="shape=step;perimeter=stepPerimeter;whiteSpace=wrap;html=1;fixedSize=1;" vertex="1" parent="1">
          <mxGeometry x="90" y="370" width="140" height="30" as="geometry" />
        </mxCell>
        <mxCell id="wKspAYFqNovjart-IcCN-17" value="connector.so" style="text;html=1;align=center;verticalAlign=middle;whiteSpace=wrap;rounded=0;" vertex="1" parent="1">
          <mxGeometry x="395" y="390" width="90" height="30" as="geometry" />
        </mxCell>
        <mxCell id="wKspAYFqNovjart-IcCN-18" value="exported resources" style="shape=parallelogram;perimeter=parallelogramPerimeter;whiteSpace=wrap;html=1;fixedSize=1;" vertex="1" parent="1">
          <mxGeometry x="400" y="470" width="100" height="45" as="geometry" />
        </mxCell>
        <mxCell id="wKspAYFqNovjart-IcCN-26" value="" style="endArrow=none;dashed=1;html=1;rounded=0;entryX=0.5;entryY=1;entryDx=0;entryDy=0;entryPerimeter=0;exitX=1;exitY=0.5;exitDx=0;exitDy=0;" edge="1" parent="1" source="wKspAYFqNovjart-IcCN-8" target="wKspAYFqNovjart-IcCN-7">
          <mxGeometry width="50" height="50" relative="1" as="geometry">
            <mxPoint x="330" y="420" as="sourcePoint" />
            <mxPoint x="380" y="370" as="targetPoint" />
            <Array as="points">
              <mxPoint x="698" y="490" />
            </Array>
          </mxGeometry>
        </mxCell>
        <mxCell id="wKspAYFqNovjart-IcCN-27" value="connector interface" style="text;html=1;align=center;verticalAlign=middle;whiteSpace=wrap;rounded=0;" vertex="1" parent="1">
          <mxGeometry x="465" y="110" width="60" height="30" as="geometry" />
        </mxCell>
        <mxCell id="wKspAYFqNovjart-IcCN-29" value="&lt;h1&gt;Connector Architecture Go&lt;/h1&gt;" style="text;html=1;align=center;verticalAlign=middle;whiteSpace=wrap;rounded=0;" vertex="1" parent="1">
          <mxGeometry x="340" y="40" width="350" height="70" as="geometry" />
        </mxCell>
      </root>
    </mxGraphModel>
  </diagram>
</mxfile>
